<svg viewBox="-16 -32 880 192" width="880" height="192" xmlns="http://www.w3.org/2000/svg">
    <style>
<!--        piece "L"-->
        @keyframes s0 {
        {transform:translate(384px,-16px)}.02% {transform:translate(384px,96px)}.05%
        }
        @keyframes s1 {
        {transform:translate(384px,-16px)}.02% {transform:translate(384px,80px)}.05%
        }
        @keyframes s2 {
        {transform:translate(384px,-16px)}.02% {transform:translate(384px,64px)}.05%
        }
        @keyframes s3 {
        {transform:translate(400px,-16px)}.02% {transform:translate(400px,96px)}.05%
        }
<!--        piece "T"-->
        @keyframes s4 {
        {transform:translate(416px,-16px)}.055% {transform:translate(416px,96px)}.085%
        }
        @keyframes s5 {
        {transform:translate(423px,-16px)}.055% {transform:translate(423px,96px)}.085%
        }
        @keyframes s6 {
        {transform:translate(439px,-16px)}.055% {transform:translate(439px,96px)}.085%
        }
        @keyframes s7 {
        {transform:translate(423px,-16px)}.055% {transform:translate(423px,80px)}.085%
        }
<!--        piece "square"-->
        @keyframes s8 {
        {transform:translate(391px,-190px)}.090% {transform:translate(391px,100px)}.090%
        }
        @keyframes s9 {
        {transform:translate(407px,-190px)}.090% {transform:translate(407px,100px)}.090%
        }
        @keyframes s10 {
        {transform:translate(391px,-208px)}.090% {transform:translate(391px,85px)}.090%
        }
        @keyframes s11 {
        {transform:translate(407px,-208px)}.090% {transform:translate(407px,85px)}.090%
        }
<!--        piece "Z_right"-->
        @keyframes s12 {
        {transform:translate(455px,-500px)}0.13% {transform:translate(455px,117px)}0.13%
        }
        @keyframes s13 {
        {transform:translate(455px,-326px)}0.13% {transform:translate(455px,101px)}0.13%
        }
        @keyframes s14 {
        {transform:translate(439px,-326px)}0.13% {transform:translate(439px,101px)}0.13%
        }
        @keyframes s15 {
        {transform:translate(439px,-342px)}0.13% {transform:translate(439px,85px)}0.13%
        }
<!--        piece "Z_left"-->
        @keyframes s16 {
        {transform:translate(423px,-500px)}0.17% {transform:translate(423px,85px)}0.17%
        }
        @keyframes s17 {
        {transform:translate(423px,-342px)}0.17% {transform:translate(423px,69px)}0.17%
        }
        @keyframes s18 {
        {transform:translate(439px,-342px)}0.17% {transform:translate(439px,69px)}0.17%
        }
        @keyframes s19 {
        {transform:translate(439px,-326px)}0.17% {transform:translate(439px,53px)}0.17%
        }
<!--        piece "I"-->
        @keyframes s20 {
        {transform:translate(391px,-500px)}0.21% {transform:translate(455px,85px)}0.21%
        }
        @keyframes s21 {
        {transform:translate(391px,-500px)}0.21% {transform:translate(455px,69px)}0.21%
        }
        @keyframes s22 {
        {transform:translate(391px,-500px)}0.21% {transform:translate(455px,53px)}0.21%
        }
        @keyframes s23 {
        {transform:translate(391px,-500px)}0.21% {transform:translate(455px,37px)}0.21%
        }
<!--        piece "L_left"-->
        @keyframes s24 {
        {transform:translate(375px,-500px)}0.25% {transform:translate(375px,69px)}0.25%
        }
        @keyframes s25 {
        {transform:translate(375px,-500px)}0.25% {transform:translate(375px,53px)}0.25%
        }
        @keyframes s26 {
        {transform:translate(375px,-500px)}0.25% {transform:translate(391px,69px)}0.25%
        }
        @keyframes s27 {
        {transform:translate(375px,-500px)}0.25% {transform:translate(407px,69px)}0.25%
        }
<!--        piece "Z_right"-->
        @keyframes s28 {
        {transform:translate(455px,-500px)}0.28% {transform:translate(439px,37px)}0.28%
        }
        @keyframes s29 {
        {transform:translate(455px,-500px)}0.28% {transform:translate(423px,37px)}0.28%
        }
        @keyframes s30 {
        {transform:translate(455px,-500px)}0.28% {transform:translate(423px,53px)}0.28%
        }
        @keyframes s31 {
        {transform:translate(455px,-500px)}0.28% {transform:translate(407px,53px)}0.28%
        }
<!--        piece "T"-->
        @keyframes s32 {
        {transform:translate(423px,-500px)}0.32% {transform:translate(391px,53px)}0.32%
        }
        @keyframes s33 {
        {transform:translate(423px,-500px)}0.32% {transform:translate(407px,37px)}0.32%
        }
        @keyframes s34 {
        {transform:translate(423px,-500px)}0.32% {transform:translate(391px,37px)}0.32%
        }
        @keyframes s35 {
        {transform:translate(423px,-500px)}0.32% {transform:translate(375px,37px)}0.32%
        }



        :root {
        --cb:#1b1f230a;
        --cc:#FFC7A8;
        --cs:#EC8C58;
        --ce:#ebedf0;
        --c0:#ebedf0;
        --c1:#9be9a8;
        --c2:#40c463;
        --c3:#30a14e;
        --c4:#216e39
        }
        @media (prefers-color-scheme:dark){
        :root{
        --cb:#1b1f230a;
        --cc:#FFC7A8;
        --cs:#EC8C58;
        --ce:#161b22;
        --c0:#161b22;
        --c1:#01311f;
        --c2:#034525;
        --c3:#0f6d31;
        --c4:#00c647}}

        .s{animation:none linear 9999999ms infinite}
        .s{shape-rendering:geometricPrecision;fill:var(--cs)}
        .c{shape-rendering:geometricPrecision;fill:var(--cc)}

        <!--        piece "L"-->
        .s.s0{transform:translate(384px,-16px);animation-name:s0}
        .s.s1{transform:translate(384px,-32px);animation-name:s1}
        .s.s2{transform:translate(384px,-48px);animation-name:s2}
        .s.s3{transform:translate(400px,-16px);animation-name:s3}
        <!--        piece "T"-->
        .s.s4{transform:translate(416px,-112px);animation-name:s4}
        .s.s5{transform:translate(423px,-112px);animation-name:s5}
        .s.s6{transform:translate(439px,-112px);animation-name:s6}
        .s.s7{transform:translate(423px,-128px);animation-name:s7}
        <!--        piece "square"-->
        .s.s8{transform:translate(391px,-190px);animation-name:s8}
        .s.s9{transform:translate(407px,-190px);animation-name:s9}
        .s.s10{transform:translate(391px,-208px);animation-name:s10}
        .s.s11{transform:translate(407px,-208px);animation-name:s11}
        <!--        piece "Z_right"-->
        .s.s12{transform:translate(455px,-310px);animation-name:s12}
        .s.s13{transform:translate(455px,-326px);animation-name:s13}
        .s.s14{transform:translate(439px,-326px);animation-name:s14}
        .s.s15{transform:translate(439px,-342px);animation-name:s15}
        <!--        piece "Z_left"-->
        .s.s16{transform:translate(423px,-358px);animation-name:s16}
        .s.s17{transform:translate(423px,-374px);animation-name:s17}
        .s.s18{transform:translate(439px,-374px);animation-name:s18}
        .s.s19{transform:translate(439px,-390px);animation-name:s19}
        <!--        piece "I"-->
        .s.s20{transform:translate(455px,-520px);animation-name:s20}
        .s.s21{transform:translate(455px,-536px);animation-name:s21}
        .s.s22{transform:translate(455px,-552px);animation-name:s22}
        .s.s23{transform:translate(455px,-568px);animation-name:s23}
        <!--        piece "L_left"-->
        .s.s24{transform:translate(375px,-584px);animation-name:s24}
        .s.s25{transform:translate(375px,-600px);animation-name:s25}
        .s.s26{transform:translate(391px,-584px);animation-name:s26}
        .s.s27{transform:translate(407px,-584px);animation-name:s27}
        <!--        piece "Z_right"-->
        .s.s28{transform:translate(438px,-616px);animation-name:s28}
        .s.s29{transform:translate(438px,-632px);animation-name:s29}
        .s.s30{transform:translate(438px,-600px);animation-name:s30}
        .s.s31{transform:translate(422px,-600px);animation-name:s31}
        <!--        piece "T"-->
        .s.s32{transform:translate(391px,-616px);animation-name:s32}
        .s.s33{transform:translate(407px,-632px);animation-name:s33}
        .s.s34{transform:translate(391px,-632px);animation-name:s34}
        .s.s35{transform:translate(375px,-632px);animation-name:s35}



    </style>
<rect class="c" x="2" y="2" rx="2" ry="2" width="12" height="12"/>
<rect class="c" x="2" y="18" rx="2" ry="2" width="12" height="12"/>
    <rect class="c c0" x="2" y="34" rx="2" ry="2" width="12" height="12"/>
    <rect class="c" x="2" y="50" rx="2" ry="2" width="12" height="12"/>
    <rect class="c" x="2" y="66" rx="2" ry="2" width="12" height="12"/>
    <rect class="c" x="2" y="82" rx="2" ry="2" width="12" height="12"/>
    <rect class="c" x="2" y="98" rx="2" ry="2" width="12" height="12"/>
    <rect class="c" x="18" y="2" rx="2" ry="2" width="12" height="12"/>
    <rect class="c" x="18" y="18" rx="2" ry="2" width="12" height="12"/>
    <rect class="c" x="18" y="34" rx="2" ry="2" width="12" height="12"/>
    <rect class="c" x="18" y="50" rx="2" ry="2" width="12" height="12"/>
    <rect class="c" x="18" y="66" rx="2" ry="2" width="12" height="12"/>
    <rect class="c" x="18" y="82" rx="2" ry="2" width="12" height="12"/>
    <rect class="c c1" x="18" y="98" rx="2" ry="2" width="12" height="12"/>
    <rect class="c c2" x="34" y="2" rx="2" ry="2" width="12" height="12"/>
    <rect class="c" x="34" y="18" rx="2" ry="2" width="12" height="12"/>
    <rect class="c c3" x="34" y="34" rx="2" ry="2" width="12" height="12"/>
    <rect class="c c4" x="34" y="50" rx="2" ry="2" width="12" height="12"/>
    <rect class="c c5" x="34" y="66" rx="2" ry="2" width="12" height="12"/>
    <rect class="c" x="34" y="82" rx="2" ry="2" width="12" height="12"/>
    <rect class="c" x="34" y="98" rx="2" ry="2" width="12" height="12"/>
    <rect class="c" x="50" y="2" rx="2" ry="2" width="12" height="12"/>
    <rect class="c" x="50" y="18" rx="2" ry="2" width="12" height="12"/>
    <rect class="c" x="50" y="34" rx="2" ry="2" width="12" height="12"/>
    <rect class="c" x="50" y="50" rx="2" ry="2" width="12" height="12"/>
    <rect class="c" x="50" y="66" rx="2" ry="2" width="12" height="12"/>
    <rect class="c" x="50" y="82" rx="2" ry="2" width="12" height="12"/>
    <rect class="c" x="50" y="98" rx="2" ry="2" width="12" height="12"/>
    <rect class="c" x="66" y="2" rx="2" ry="2" width="12" height="12"/>
    <rect class="c" x="66" y="18" rx="2" ry="2" width="12" height="12"/>
    <rect class="c" x="66" y="34" rx="2" ry="2" width="12" height="12"/>
    <rect class="c" x="66" y="50" rx="2" ry="2" width="12" height="12"/>
    <rect class="c" x="66" y="66" rx="2" ry="2" width="12" height="12"/>
    <rect class="c" x="66" y="82" rx="2" ry="2" width="12" height="12"/>
    <rect class="c c6" x="66" y="98" rx="2" ry="2" width="12" height="12"/>
    <rect class="c c7" x="82" y="2" rx="2" ry="2" width="12" height="12"/>
    <rect class="c" x="82" y="18" rx="2" ry="2" width="12" height="12"/>
    <rect class="c" x="82" y="34" rx="2" ry="2" width="12" height="12"/>
    <rect class="c" x="82" y="50" rx="2" ry="2" width="12" height="12"/>
    <rect class="c c8" x="82" y="66" rx="2" ry="2" width="12" height="12"/>
    <rect class="c" x="82" y="82" rx="2" ry="2" width="12" height="12"/>
    <rect class="c" x="82" y="98" rx="2" ry="2" width="12" height="12"/>
    <rect class="c" x="98" y="2" rx="2" ry="2" width="12" height="12"/>
    <rect class="c c9" x="98" y="18" rx="2" ry="2" width="12" height="12"/>
    <rect class="c ca" x="98" y="34" rx="2" ry="2" width="12" height="12"/>
    <rect class="c" x="98" y="50" rx="2" ry="2" width="12" height="12"/>
    <rect class="c" x="98" y="66" rx="2" ry="2" width="12" height="12"/>
    <rect class="c cb" x="98" y="82" rx="2" ry="2" width="12" height="12"/>
    <rect class="c cc" x="98" y="98" rx="2" ry="2" width="12" height="12"/>
    <rect class="c cd" x="114" y="2" rx="2" ry="2" width="12" height="12"/>
    <rect class="c" x="114" y="18" rx="2" ry="2" width="12" height="12"/>
    <rect class="c" x="114" y="34" rx="2" ry="2" width="12" height="12"/>
    <rect class="c" x="114" y="50" rx="2" ry="2" width="12" height="12"/>
    <rect class="c" x="114" y="66" rx="2" ry="2" width="12" height="12"/>
    <rect class="c" x="114" y="82" rx="2" ry="2" width="12" height="12"/>
    <rect class="c" x="114" y="98" rx="2" ry="2" width="12" height="12"/>
    <rect class="c" x="130" y="2" rx="2" ry="2" width="12" height="12"/>
    <rect class="c" x="130" y="18" rx="2" ry="2" width="12" height="12"/>
    <rect class="c" x="130" y="34" rx="2" ry="2" width="12" height="12"/>
    <rect class="c ce" x="130" y="50" rx="2" ry="2" width="12" height="12"/>
    <rect class="c" x="130" y="66" rx="2" ry="2" width="12" height="12"/>
    <rect class="c cf" x="130" y="82" rx="2" ry="2" width="12" height="12"/>
    <rect class="c" x="130" y="98" rx="2" ry="2" width="12" height="12"/>
    <rect class="c" x="146" y="2" rx="2" ry="2" width="12" height="12"/>
    <rect class="c" x="146" y="18" rx="2" ry="2" width="12" height="12"/>
    <rect class="c" x="146" y="34" rx="2" ry="2" width="12" height="12"/>
    <rect class="c" x="146" y="50" rx="2" ry="2" width="12" height="12"/>
    <rect class="c" x="146" y="66" rx="2" ry="2" width="12" height="12"/>
    <rect class="c" x="146" y="82" rx="2" ry="2" width="12" height="12"/>
    <rect class="c" x="146" y="98" rx="2" ry="2" width="12" height="12"/>
    <rect class="c" x="162" y="2" rx="2" ry="2" width="12" height="12"/>
    <rect class="c" x="162" y="18" rx="2" ry="2" width="12" height="12"/>
    <rect class="c cg" x="162" y="34" rx="2" ry="2" width="12" height="12"/>
    <rect class="c" x="162" y="50" rx="2" ry="2" width="12" height="12"/>
    <rect class="c" x="162" y="66" rx="2" ry="2" width="12" height="12"/>
    <rect class="c" x="162" y="82" rx="2" ry="2" width="12" height="12"/>
    <rect class="c" x="162" y="98" rx="2" ry="2" width="12" height="12"/>
    <rect class="c" x="178" y="2" rx="2" ry="2" width="12" height="12"/>
    <rect class="c" x="178" y="18" rx="2" ry="2" width="12" height="12"/>
    <rect class="c" x="178" y="34" rx="2" ry="2" width="12" height="12"/>
    <rect class="c ch" x="178" y="50" rx="2" ry="2" width="12" height="12"/>
    <rect class="c ci" x="178" y="66" rx="2" ry="2" width="12" height="12"/>
    <rect class="c" x="178" y="82" rx="2" ry="2" width="12" height="12"/>
    <rect class="c" x="178" y="98" rx="2" ry="2" width="12" height="12"/>
    <rect class="c" x="194" y="2" rx="2" ry="2" width="12" height="12"/>
    <rect class="c" x="194" y="18" rx="2" ry="2" width="12" height="12"/>
    <rect class="c" x="194" y="34" rx="2" ry="2" width="12" height="12"/>
    <rect class="c" x="194" y="50" rx="2" ry="2" width="12" height="12"/>
    <rect class="c" x="194" y="66" rx="2" ry="2" width="12" height="12"/>
    <rect class="c" x="194" y="82" rx="2" ry="2" width="12" height="12"/>
    <rect class="c" x="194" y="98" rx="2" ry="2" width="12" height="12"/>
    <rect class="c" x="210" y="2" rx="2" ry="2" width="12" height="12"/>
    <rect class="c cj" x="210" y="18" rx="2" ry="2" width="12" height="12"/>
    <rect class="c ck" x="210" y="34" rx="2" ry="2" width="12" height="12"/>
    <rect class="c" x="210" y="50" rx="2" ry="2" width="12" height="12"/>
    <rect class="c" x="210" y="66" rx="2" ry="2" width="12" height="12"/>
    <rect class="c" x="210" y="82" rx="2" ry="2" width="12" height="12"/>
    <rect class="c" x="210" y="98" rx="2" ry="2" width="12" height="12"/>
    <rect class="c" x="226" y="2" rx="2" ry="2" width="12" height="12"/>
    <rect class="c" x="226" y="18" rx="2" ry="2" width="12" height="12"/>
    <rect class="c" x="226" y="34" rx="2" ry="2" width="12" height="12"/>
    <rect class="c cl" x="226" y="50" rx="2" ry="2" width="12" height="12"/>
    <rect class="c cm" x="226" y="66" rx="2" ry="2" width="12" height="12"/>
    <rect class="c cn" x="226" y="82" rx="2" ry="2" width="12" height="12"/>
    <rect class="c co" x="226" y="98" rx="2" ry="2" width="12" height="12"/>
    <rect class="c cp" x="242" y="2" rx="2" ry="2" width="12" height="12"/>
    <rect class="c cq" x="242" y="18" rx="2" ry="2" width="12" height="12"/>
    <rect class="c cr" x="242" y="34" rx="2" ry="2" width="12" height="12"/>
    <rect class="c" x="242" y="50" rx="2" ry="2" width="12" height="12"/>
    <rect class="c cs" x="242" y="66" rx="2" ry="2" width="12" height="12"/>
    <rect class="c" x="242" y="82" rx="2" ry="2" width="12" height="12"/>
    <rect class="c" x="242" y="98" rx="2" ry="2" width="12" height="12"/>
    <rect class="c" x="258" y="2" rx="2" ry="2" width="12" height="12"/>
    <rect class="c ct" x="258" y="18" rx="2" ry="2" width="12" height="12"/>
    <rect class="c cu" x="258" y="34" rx="2" ry="2" width="12" height="12"/>
    <rect class="c cv" x="258" y="50" rx="2" ry="2" width="12" height="12"/>
    <rect class="c" x="258" y="66" rx="2" ry="2" width="12" height="12"/>
    <rect class="c" x="258" y="82" rx="2" ry="2" width="12" height="12"/>
    <rect class="c cw" x="258" y="98" rx="2" ry="2" width="12" height="12"/>
    <rect class="c" x="274" y="2" rx="2" ry="2" width="12" height="12"/>
    <rect class="c cx" x="274" y="18" rx="2" ry="2" width="12" height="12"/>
    <rect class="c" x="274" y="34" rx="2" ry="2" width="12" height="12"/>
    <rect class="c cy" x="274" y="50" rx="2" ry="2" width="12" height="12"/>
    <rect class="c" x="274" y="66" rx="2" ry="2" width="12" height="12"/>
    <rect class="c" x="274" y="82" rx="2" ry="2" width="12" height="12"/>
    <rect class="c" x="274" y="98" rx="2" ry="2" width="12" height="12"/>
    <rect class="c" x="290" y="2" rx="2" ry="2" width="12" height="12"/>
    <rect class="c cz" x="290" y="18" rx="2" ry="2" width="12" height="12"/>
    <rect class="c c10" x="290" y="34" rx="2" ry="2" width="12" height="12"/>
    <rect class="c" x="290" y="50" rx="2" ry="2" width="12" height="12"/>
    <rect class="c c11" x="290" y="66" rx="2" ry="2" width="12" height="12"/>
    <rect class="c" x="290" y="82" rx="2" ry="2" width="12" height="12"/>
    <rect class="c" x="290" y="98" rx="2" ry="2" width="12" height="12"/>
    <rect class="c" x="306" y="2" rx="2" ry="2" width="12" height="12"/>
    <rect class="c" x="306" y="18" rx="2" ry="2" width="12" height="12"/>
    <rect class="c c12" x="306" y="34" rx="2" ry="2" width="12" height="12"/>
    <rect class="c" x="306" y="50" rx="2" ry="2" width="12" height="12"/>
    <rect class="c" x="306" y="66" rx="2" ry="2" width="12" height="12"/>
    <rect class="c" x="306" y="82" rx="2" ry="2" width="12" height="12"/>
    <rect class="c" x="306" y="98" rx="2" ry="2" width="12" height="12"/>
    <rect class="c c13" x="322" y="2" rx="2" ry="2" width="12" height="12"/>
    <rect class="c c14" x="322" y="18" rx="2" ry="2" width="12" height="12"/>
    <rect class="c" x="322" y="34" rx="2" ry="2" width="12" height="12"/>
    <rect class="c" x="322" y="50" rx="2" ry="2" width="12" height="12"/>
    <rect class="c c15" x="322" y="66" rx="2" ry="2" width="12" height="12"/>
    <rect class="c" x="322" y="82" rx="2" ry="2" width="12" height="12"/>
    <rect class="c" x="322" y="98" rx="2" ry="2" width="12" height="12"/>
    <rect class="c" x="338" y="2" rx="2" ry="2" width="12" height="12"/>
    <rect class="c" x="338" y="18" rx="2" ry="2" width="12" height="12"/>
    <rect class="c" x="338" y="34" rx="2" ry="2" width="12" height="12"/>
    <rect class="c" x="338" y="50" rx="2" ry="2" width="12" height="12"/>
    <rect class="c" x="338" y="66" rx="2" ry="2" width="12" height="12"/>
    <rect class="c" x="338" y="82" rx="2" ry="2" width="12" height="12"/>
    <rect class="c" x="338" y="98" rx="2" ry="2" width="12" height="12"/>
    <rect class="c" x="354" y="2" rx="2" ry="2" width="12" height="12"/>
    <rect class="c" x="354" y="18" rx="2" ry="2" width="12" height="12"/>
    <rect class="c" x="354" y="34" rx="2" ry="2" width="12" height="12"/>
    <rect class="c" x="354" y="50" rx="2" ry="2" width="12" height="12"/>
    <rect class="c c16" x="354" y="66" rx="2" ry="2" width="12" height="12"/>
    <rect class="c" x="354" y="82" rx="2" ry="2" width="12" height="12"/>
    <rect class="c" x="354" y="98" rx="2" ry="2" width="12" height="12"/>
    <rect class="c" x="370" y="2" rx="2" ry="2" width="12" height="12"/>
    <rect class="c" x="370" y="18" rx="2" ry="2" width="12" height="12"/>
    <rect class="c" x="370" y="34" rx="2" ry="2" width="12" height="12"/>
<rect class="c" x="370" y="50" rx="2" ry="2" width="12" height="12"/>
<rect class="c" x="370" y="66" rx="2" ry="2" width="12" height="12"/>
<rect class="c" x="370" y="82" rx="2" ry="2" width="12" height="12"/>
<rect class="c" x="370" y="98" rx="2" ry="2" width="12" height="12"/>
<rect class="c c17" x="386" y="2" rx="2" ry="2" width="12" height="12"/>
<rect class="c" x="386" y="18" rx="2" ry="2" width="12" height="12"/>
<rect class="c" x="386" y="34" rx="2" ry="2" width="12" height="12"/>
<rect class="c c18" x="386" y="50" rx="2" ry="2" width="12" height="12"/>
<rect class="c c19" x="386" y="66" rx="2" ry="2" width="12" height="12"/>
<rect class="c c1a" x="386" y="82" rx="2" ry="2" width="12" height="12"/>
<rect class="c" x="386" y="98" rx="2" ry="2" width="12" height="12"/>
<rect class="c" x="402" y="2" rx="2" ry="2" width="12" height="12"/>
<rect class="c c1b" x="402" y="18" rx="2" ry="2" width="12" height="12"/>
<rect class="c c1c" x="402" y="34" rx="2" ry="2" width="12" height="12"/>
<rect class="c c1d" x="402" y="50" rx="2" ry="2" width="12" height="12"/>
<rect class="c" x="402" y="66" rx="2" ry="2" width="12" height="12"/>
<rect class="c" x="402" y="82" rx="2" ry="2" width="12" height="12"/>
<rect class="c" x="402" y="98" rx="2" ry="2" width="12" height="12"/>
<rect class="c" x="418" y="2" rx="2" ry="2" width="12" height="12"/>
<rect class="c" x="418" y="18" rx="2" ry="2" width="12" height="12"/>
<rect class="c" x="418" y="34" rx="2" ry="2" width="12" height="12"/>
<rect class="c" x="418" y="50" rx="2" ry="2" width="12" height="12"/>
<rect class="c" x="418" y="66" rx="2" ry="2" width="12" height="12"/>
<rect class="c c1e" x="418" y="82" rx="2" ry="2" width="12" height="12"/>
<rect class="c c1f" x="418" y="98" rx="2" ry="2" width="12" height="12"/>
<rect class="c" x="434" y="2" rx="2" ry="2" width="12" height="12"/>
<rect class="c" x="434" y="18" rx="2" ry="2" width="12" height="12"/>
<rect class="c c1g" x="434" y="34" rx="2" ry="2" width="12" height="12"/>
<rect class="c" x="434" y="50" rx="2" ry="2" width="12" height="12"/>
<rect class="c" x="434" y="66" rx="2" ry="2" width="12" height="12"/>
<rect class="c" x="434" y="82" rx="2" ry="2" width="12" height="12"/>
<rect class="c c1h" x="434" y="98" rx="2" ry="2" width="12" height="12"/>
<rect class="c" x="450" y="2" rx="2" ry="2" width="12" height="12"/>
<rect class="c" x="450" y="18" rx="2" ry="2" width="12" height="12"/>
<rect class="c" x="450" y="34" rx="2" ry="2" width="12" height="12"/>
<rect class="c" x="450" y="50" rx="2" ry="2" width="12" height="12"/>
<rect class="c" x="450" y="66" rx="2" ry="2" width="12" height="12"/>
<rect class="c c1i" x="450" y="82" rx="2" ry="2" width="12" height="12"/>
<rect class="c" x="450" y="98" rx="2" ry="2" width="12" height="12"/>
<rect class="c" x="466" y="2" rx="2" ry="2" width="12" height="12"/>
<rect class="c c1j" x="466" y="18" rx="2" ry="2" width="12" height="12"/>
<rect class="c" x="466" y="34" rx="2" ry="2" width="12" height="12"/>
<rect class="c" x="466" y="50" rx="2" ry="2" width="12" height="12"/>
<rect class="c" x="466" y="66" rx="2" ry="2" width="12" height="12"/>
<rect class="c" x="466" y="82" rx="2" ry="2" width="12" height="12"/>
<rect class="c" x="466" y="98" rx="2" ry="2" width="12" height="12"/>
<rect class="c c1k" x="482" y="2" rx="2" ry="2" width="12" height="12"/>
<rect class="c" x="482" y="18" rx="2" ry="2" width="12" height="12"/>
<rect class="c" x="482" y="34" rx="2" ry="2" width="12" height="12"/>
<rect class="c" x="482" y="50" rx="2" ry="2" width="12" height="12"/>
<rect class="c" x="482" y="66" rx="2" ry="2" width="12" height="12"/>
<rect class="c" x="482" y="82" rx="2" ry="2" width="12" height="12"/>
<rect class="c" x="482" y="98" rx="2" ry="2" width="12" height="12"/>
<rect class="c" x="498" y="2" rx="2" ry="2" width="12" height="12"/>
<rect class="c c1l" x="498" y="18" rx="2" ry="2" width="12" height="12"/>
<rect class="c c1m" x="498" y="34" rx="2" ry="2" width="12" height="12"/>
<rect class="c c1n" x="498" y="50" rx="2" ry="2" width="12" height="12"/>
<rect class="c c1o" x="498" y="66" rx="2" ry="2" width="12" height="12"/>
<rect class="c c1p" x="498" y="82" rx="2" ry="2" width="12" height="12"/>
<rect class="c c1q" x="498" y="98" rx="2" ry="2" width="12" height="12"/>
<rect class="c c1r" x="514" y="2" rx="2" ry="2" width="12" height="12"/>
<rect class="c" x="514" y="18" rx="2" ry="2" width="12" height="12"/>
<rect class="c c1s" x="514" y="34" rx="2" ry="2" width="12" height="12"/>
<rect class="c c1t" x="514" y="50" rx="2" ry="2" width="12" height="12"/>
<rect class="c c1u" x="514" y="66" rx="2" ry="2" width="12" height="12"/>
<rect class="c" x="514" y="82" rx="2" ry="2" width="12" height="12"/>
<rect class="c c1v" x="514" y="98" rx="2" ry="2" width="12" height="12"/>
<rect class="c c1w" x="530" y="2" rx="2" ry="2" width="12" height="12"/>
<rect class="c c1x" x="530" y="18" rx="2" ry="2" width="12" height="12"/>
<rect class="c" x="530" y="34" rx="2" ry="2" width="12" height="12"/>
<rect class="c c1y" x="530" y="50" rx="2" ry="2" width="12" height="12"/>
<rect class="c c1z" x="530" y="66" rx="2" ry="2" width="12" height="12"/>
<rect class="c" x="530" y="82" rx="2" ry="2" width="12" height="12"/>
<rect class="c c20" x="530" y="98" rx="2" ry="2" width="12" height="12"/>
<rect class="c" x="546" y="2" rx="2" ry="2" width="12" height="12"/>
<rect class="c" x="546" y="18" rx="2" ry="2" width="12" height="12"/>
<rect class="c" x="546" y="34" rx="2" ry="2" width="12" height="12"/>
<rect class="c" x="546" y="50" rx="2" ry="2" width="12" height="12"/>
<rect class="c" x="546" y="66" rx="2" ry="2" width="12" height="12"/>
<rect class="c" x="546" y="82" rx="2" ry="2" width="12" height="12"/>
<rect class="c" x="546" y="98" rx="2" ry="2" width="12" height="12"/>
<rect class="c" x="562" y="2" rx="2" ry="2" width="12" height="12"/>
<rect class="c" x="562" y="18" rx="2" ry="2" width="12" height="12"/>
<rect class="c" x="562" y="34" rx="2" ry="2" width="12" height="12"/>
<rect class="c" x="562" y="50" rx="2" ry="2" width="12" height="12"/>
<rect class="c" x="562" y="66" rx="2" ry="2" width="12" height="12"/>
<rect class="c" x="562" y="82" rx="2" ry="2" width="12" height="12"/>
<rect class="c" x="562" y="98" rx="2" ry="2" width="12" height="12"/>
<rect class="c" x="578" y="2" rx="2" ry="2" width="12" height="12"/>
<rect class="c c21" x="578" y="18" rx="2" ry="2" width="12" height="12"/>
<rect class="c" x="578" y="34" rx="2" ry="2" width="12" height="12"/>
<rect class="c" x="578" y="50" rx="2" ry="2" width="12" height="12"/>
<rect class="c" x="578" y="66" rx="2" ry="2" width="12" height="12"/>
<rect class="c c22" x="578" y="82" rx="2" ry="2" width="12" height="12"/>
<rect class="c" x="578" y="98" rx="2" ry="2" width="12" height="12"/>
<rect class="c" x="594" y="2" rx="2" ry="2" width="12" height="12"/>
<rect class="c" x="594" y="18" rx="2" ry="2" width="12" height="12"/>
<rect class="c" x="594" y="34" rx="2" ry="2" width="12" height="12"/>
<rect class="c" x="594" y="50" rx="2" ry="2" width="12" height="12"/>
<rect class="c" x="594" y="66" rx="2" ry="2" width="12" height="12"/>
<rect class="c" x="594" y="82" rx="2" ry="2" width="12" height="12"/>
<rect class="c" x="594" y="98" rx="2" ry="2" width="12" height="12"/>
<rect class="c" x="610" y="2" rx="2" ry="2" width="12" height="12"/>
<rect class="c" x="610" y="18" rx="2" ry="2" width="12" height="12"/>
<rect class="c" x="610" y="34" rx="2" ry="2" width="12" height="12"/>
<rect class="c" x="610" y="50" rx="2" ry="2" width="12" height="12"/>
<rect class="c" x="610" y="66" rx="2" ry="2" width="12" height="12"/>
<rect class="c" x="610" y="82" rx="2" ry="2" width="12" height="12"/>
<rect class="c" x="610" y="98" rx="2" ry="2" width="12" height="12"/>
<rect class="c" x="626" y="2" rx="2" ry="2" width="12" height="12"/>
<rect class="c" x="626" y="18" rx="2" ry="2" width="12" height="12"/>
<rect class="c" x="626" y="34" rx="2" ry="2" width="12" height="12"/>
<rect class="c" x="626" y="50" rx="2" ry="2" width="12" height="12"/>
<rect class="c" x="626" y="66" rx="2" ry="2" width="12" height="12"/>
<rect class="c" x="626" y="82" rx="2" ry="2" width="12" height="12"/>
<rect class="c" x="626" y="98" rx="2" ry="2" width="12" height="12"/>
<rect class="c" x="642" y="2" rx="2" ry="2" width="12" height="12"/>
<rect class="c" x="642" y="18" rx="2" ry="2" width="12" height="12"/>
<rect class="c" x="642" y="34" rx="2" ry="2" width="12" height="12"/>
<rect class="c" x="642" y="50" rx="2" ry="2" width="12" height="12"/>
<rect class="c" x="642" y="66" rx="2" ry="2" width="12" height="12"/>
<rect class="c" x="642" y="82" rx="2" ry="2" width="12" height="12"/>
<rect class="c" x="642" y="98" rx="2" ry="2" width="12" height="12"/>
<rect class="c" x="658" y="2" rx="2" ry="2" width="12" height="12"/>
<rect class="c" x="658" y="18" rx="2" ry="2" width="12" height="12"/>
<rect class="c" x="658" y="34" rx="2" ry="2" width="12" height="12"/>
<rect class="c" x="658" y="50" rx="2" ry="2" width="12" height="12"/>
<rect class="c" x="658" y="66" rx="2" ry="2" width="12" height="12"/>
<rect class="c" x="658" y="82" rx="2" ry="2" width="12" height="12"/>
<rect class="c" x="658" y="98" rx="2" ry="2" width="12" height="12"/>
<rect class="c c23" x="674" y="2" rx="2" ry="2" width="12" height="12"/>
<rect class="c c24" x="674" y="18" rx="2" ry="2" width="12" height="12"/>
<rect class="c c25" x="674" y="34" rx="2" ry="2" width="12" height="12"/>
<rect class="c c26" x="674" y="50" rx="2" ry="2" width="12" height="12"/>
<rect class="c c27" x="674" y="66" rx="2" ry="2" width="12" height="12"/>
<rect class="c c28" x="674" y="82" rx="2" ry="2" width="12" height="12"/>
<rect class="c" x="674" y="98" rx="2" ry="2" width="12" height="12"/>
<rect class="c" x="690" y="2" rx="2" ry="2" width="12" height="12"/>
<rect class="c" x="690" y="18" rx="2" ry="2" width="12" height="12"/>
<rect class="c" x="690" y="34" rx="2" ry="2" width="12" height="12"/>
<rect class="c c29" x="690" y="50" rx="2" ry="2" width="12" height="12"/>
<rect class="c" x="690" y="66" rx="2" ry="2" width="12" height="12"/>
<rect class="c" x="690" y="82" rx="2" ry="2" width="12" height="12"/>
<rect class="c" x="690" y="98" rx="2" ry="2" width="12" height="12"/>
<rect class="c" x="706" y="2" rx="2" ry="2" width="12" height="12"/>
<rect class="c c2a" x="706" y="18" rx="2" ry="2" width="12" height="12"/>
<rect class="c c2b" x="706" y="34" rx="2" ry="2" width="12" height="12"/>
<rect class="c c2c" x="706" y="50" rx="2" ry="2" width="12" height="12"/>
<rect class="c c2d" x="706" y="66" rx="2" ry="2" width="12" height="12"/>
<rect class="c c2e" x="706" y="82" rx="2" ry="2" width="12" height="12"/>
<rect class="c c2f" x="706" y="98" rx="2" ry="2" width="12" height="12"/>
<rect class="c" x="722" y="2" rx="2" ry="2" width="12" height="12"/>
<rect class="c c2g" x="722" y="18" rx="2" ry="2" width="12" height="12"/>
<rect class="c c2h" x="722" y="34" rx="2" ry="2" width="12" height="12"/>
<rect class="c c2i" x="722" y="50" rx="2" ry="2" width="12" height="12"/>
<rect class="c c2j" x="722" y="66" rx="2" ry="2" width="12" height="12"/>
<rect class="c c2k" x="722" y="82" rx="2" ry="2" width="12" height="12"/>
<rect class="c" x="722" y="98" rx="2" ry="2" width="12" height="12"/>
<rect class="c" x="738" y="2" rx="2" ry="2" width="12" height="12"/>
<rect class="c" x="738" y="18" rx="2" ry="2" width="12" height="12"/>
<rect class="c c2l" x="738" y="34" rx="2" ry="2" width="12" height="12"/>
<rect class="c c2m" x="738" y="50" rx="2" ry="2" width="12" height="12"/>
<rect class="c c2n" x="738" y="66" rx="2" ry="2" width="12" height="12"/>
<rect class="c c2o" x="738" y="82" rx="2" ry="2" width="12" height="12"/>
<rect class="c" x="738" y="98" rx="2" ry="2" width="12" height="12"/>
<rect class="c" x="754" y="2" rx="2" ry="2" width="12" height="12"/>
<rect class="c c2p" x="754" y="18" rx="2" ry="2" width="12" height="12"/>
<rect class="c c2q" x="754" y="34" rx="2" ry="2" width="12" height="12"/>
<rect class="c c2r" x="754" y="50" rx="2" ry="2" width="12" height="12"/>
<rect class="c c2s" x="754" y="66" rx="2" ry="2" width="12" height="12"/>
<rect class="c c2t" x="754" y="82" rx="2" ry="2" width="12" height="12"/>
<rect class="c" x="754" y="98" rx="2" ry="2" width="12" height="12"/>
<rect class="c c2u" x="770" y="2" rx="2" ry="2" width="12" height="12"/>
<rect class="c c2v" x="770" y="18" rx="2" ry="2" width="12" height="12"/>
<rect class="c c2w" x="770" y="34" rx="2" ry="2" width="12" height="12"/>
<rect class="c c2x" x="770" y="50" rx="2" ry="2" width="12" height="12"/>
<rect class="c c2y" x="770" y="66" rx="2" ry="2" width="12" height="12"/>
<rect class="c c2z" x="770" y="82" rx="2" ry="2" width="12" height="12"/>
<rect class="c" x="770" y="98" rx="2" ry="2" width="12" height="12"/>
<rect class="c" x="786" y="2" rx="2" ry="2" width="12" height="12"/>
<rect class="c" x="786" y="18" rx="2" ry="2" width="12" height="12"/>
<rect class="c c30" x="786" y="34" rx="2" ry="2" width="12" height="12"/>
<rect class="c c31" x="786" y="50" rx="2" ry="2" width="12" height="12"/>
<rect class="c c32" x="786" y="66" rx="2" ry="2" width="12" height="12"/>
<rect class="c c33" x="786" y="82" rx="2" ry="2" width="12" height="12"/>
<rect class="c" x="786" y="98" rx="2" ry="2" width="12" height="12"/>
<rect class="c" x="802" y="2" rx="2" ry="2" width="12" height="12"/>
<rect class="c c34" x="802" y="18" rx="2" ry="2" width="12" height="12"/>
<rect class="c c35" x="802" y="34" rx="2" ry="2" width="12" height="12"/>
<rect class="c c36" x="802" y="50" rx="2" ry="2" width="12" height="12"/>
<rect class="c c37" x="802" y="66" rx="2" ry="2" width="12" height="12"/>
<rect class="c c38" x="802" y="82" rx="2" ry="2" width="12" height="12"/>
<rect class="c" x="802" y="98" rx="2" ry="2" width="12" height="12"/>
<rect class="c" x="818" y="2" rx="2" ry="2" width="12" height="12"/>
<rect class="c" x="818" y="18" rx="2" ry="2" width="12" height="12"/>
<rect class="c" x="818" y="34" rx="2" ry="2" width="12" height="12"/>
<rect class="c" x="818" y="50" rx="2" ry="2" width="12" height="12"/>
<rect class="c" x="818" y="66" rx="2" ry="2" width="12" height="12"/>
<rect class="c" x="818" y="82" rx="2" ry="2" width="12" height="12"/>
<rect class="c" x="818" y="98" rx="2" ry="2" width="12" height="12"/>
<rect class="c" x="834" y="2" rx="2" ry="2" width="12" height="12"/>
<rect class="c" x="834" y="18" rx="2" ry="2" width="12" height="12"/>
<rect class="c" x="834" y="34" rx="2" ry="2" width="12" height="12"/>
<rect class="c c39" x="834" y="50" rx="2" ry="2" width="12" height="12"/>
    
    <!--        piece "L"-->
<rect class="s s0" x="0.8" y="0.8" width="14.4" height="14.4" rx="4.5" ry="4.5"/>
<rect class="s s1" x="0.8" y="0.8" width="14.4" height="14.4" rx="4.5" ry="4.5"/>
<rect class="s s2" x="0.8" y="0.8" width="14.4" height="14.4" rx="4.5" ry="4.5"/>
<rect class="s s3" x="0.8" y="0.8" width="14.4" height="14.4" rx="4.5" ry="4.5"/>
    <!--        piece "T"-->
<rect class="s s4" x="0.8" y="0.8" width="14.4" height="14.4" rx="4.5" ry="4.5"/>
<rect class="s s5" x="10" y="0.8" width="14.4" height="14.4" rx="4.5" ry="4.5"/>
<rect class="s s6" x="10" y="0.8" width="14.4" height="14.4" rx="4.5" ry="4.5"/>
<rect class="s s7" x="10" y="0.8" width="14.4" height="14.4" rx="4.5" ry="4.5"/>
    <!--        piece "square"-->
<rect class="s s8" x="10" y="-20" width="14.4" height="14.4" rx="4.5" ry="4.5"/>
<rect class="s s9" x="10" y="-20" width="14.4" height="14.4" rx="4.5" ry="4.5"/>
<rect class="s s10" x="10" y="-20" width="14.4" height="14.4" rx="4.5" ry="4.5"/>
<rect class="s s11" x="10" y="-20" width="14.4" height="14.4" rx="4.5" ry="4.5"/>
    <!--        piece "Z_right"-->
<rect class="s s12" x="10" y="-20" width="14.4" height="14.4" rx="4.5" ry="4.5"/>
<rect class="s s13" x="10" y="-20" width="14.4" height="14.4" rx="4.5" ry="4.5"/>
<rect class="s s14" x="10" y="-20" width="14.4" height="14.4" rx="4.5" ry="4.5"/>
<rect class="s s15" x="10" y="-20" width="14.4" height="14.4" rx="4.5" ry="4.5"/>
    <!--        piece "Z_left"-->
<rect class="s s16" x="10" y="-20" width="14.4" height="14.4" rx="4.5" ry="4.5"/>
<rect class="s s17" x="10" y="-20" width="14.4" height="14.4" rx="4.5" ry="4.5"/>
<rect class="s s18" x="10" y="-20" width="14.4" height="14.4" rx="4.5" ry="4.5"/>
<rect class="s s19" x="10" y="-20" width="14.4" height="14.4" rx="4.5" ry="4.5"/>
    <!--        piece "I"-->
<rect class="s s20" x="10" y="-20" width="14.4" height="14.4" rx="4.5" ry="4.5"/>
<rect class="s s21" x="10" y="-20" width="14.4" height="14.4" rx="4.5" ry="4.5"/>
<rect class="s s22" x="10" y="-20" width="14.4" height="14.4" rx="4.5" ry="4.5"/>
<rect class="s s23" x="10" y="-20" width="14.4" height="14.4" rx="4.5" ry="4.5"/>
    <!--        piece "L_left"-->
<rect class="s s24" x="10" y="-20" width="14.4" height="14.4" rx="4.5" ry="4.5"/>
<rect class="s s25" x="10" y="-20" width="14.4" height="14.4" rx="4.5" ry="4.5"/>
<rect class="s s26" x="10" y="-20" width="14.4" height="14.4" rx="4.5" ry="4.5"/>
<rect class="s s27" x="10" y="-20" width="14.4" height="14.4" rx="4.5" ry="4.5"/>
    <!--        piece "Z_right"-->
<rect class="s s28" x="10" y="-20" width="14.4" height="14.4" rx="4.5" ry="4.5"/>
<rect class="s s29" x="10" y="-20" width="14.4" height="14.4" rx="4.5" ry="4.5"/>
<rect class="s s30" x="10" y="-20" width="14.4" height="14.4" rx="4.5" ry="4.5"/>
<rect class="s s31" x="10" y="-20" width="14.4" height="14.4" rx="4.5" ry="4.5"/>
    <!--        piece "T"-->
<rect class="s s32" x="10" y="-20" width="14.4" height="14.4" rx="4.5" ry="4.5"/>
<rect class="s s33" x="10" y="-20" width="14.4" height="14.4" rx="4.5" ry="4.5"/>
<rect class="s s34" x="10" y="-20" width="14.4" height="14.4" rx="4.5" ry="4.5"/>
<rect class="s s35" x="10" y="-20" width="14.4" height="14.4" rx="4.5" ry="4.5"/>
    <!--        piece "L_right"-->



</svg>
